<?xml version="1.0" encoding="UTF-8"?>
<!-- Generator: Adobe Illustrator 26.0.0, SVG Export Plug-In . SVG Version: 6.00 Build 0)  -->
<svg xmlns="http://www.w3.org/2000/svg" xmlns:xlink="http://www.w3.org/1999/xlink" version="1.1" id="Calque_1" x="0px" y="0px" viewBox="0 0 280.29 87.86" style="enable-background:new 0 0 280.29 87.86;" xml:space="preserve">
<style type="text/css">
	.st0{fill:#FFD471;}
	.st1{fill:#006EA5;}
</style>
<path class="st0" d="M124.38,56.98c0,0,17.37-5.95,38.09-11.9s64.74-9.91,80.28-9.91c15.54,0,33.66,3.97,33.66,3.97  s3.66,1.98,0,1.98c-2.59,0-10.36-1.98-20.72-1.98c-15.54,0-46.61,1.98-64.74,3.97c-18.13,1.98-36.25,7.93-46.61,11.9  c-10.36,3.97-15.54,3.97-15.54,3.97L124.38,56.98L124.38,56.98z"></path>
<path class="st0" d="M239.07,16.67c0,0,3.34-2.45,3.34,1.98c0,1.98,0.33-0.75-2.26,7.18c-2.59,7.93-16.51,43.91-18.13,48.16  c-0.75,1.98,0,2.8-4.1,1.98c-2.51-0.5-1.84-5.13-1.84-5.13s11.11-39.65,16.29-46.42C233.9,22.45,239.07,16.67,239.07,16.67  L239.07,16.67z"></path>
<path class="st1" d="M109.61,39.58c1.49,0.64,2.36,0.85,2.61,0.61c1.55-1.95,2.76-3.88,3.64-5.78c0.06-0.24,0.25-0.63,0.56-1.18  c0.31-0.55,0.54-1.01,0.7-1.39c0.15-0.38,0.29-0.81,0.42-1.28c0.12-0.48,0.15-0.9,0.09-1.28c-0.13-0.57-0.5-1.13-1.12-1.68  c-0.62-0.55-1.18-0.94-1.68-1.18c-0.5-0.24-1.21-0.57-2.14-1c-2.8-1.19-5.19-1.64-7.18-1.36c-2.98,0.43-6.9,1.95-11.75,4.57  c-1.93,1.05-3.6,2.28-5.03,3.71c-0.37,0.33-0.68,0.64-0.93,0.93c-1.12,0.81-2.33,1.78-3.64,2.93c-2.18,1.81-3.23,3.38-3.17,4.71  c0.06,1.28,1.43,2.67,4.1,4.14c3.36,1.81,6.59,2.95,9.7,3.43c1.68,0.24,4.2,0.24,7.55,0c0.19,0,0.43,0,0.75,0  c0.06,1.71-1.27,3.57-4.01,5.57c-1.68,1.24-4.1,2.78-7.27,4.64c-4.85,2.9-9.15,4.83-14.56,7.21c-9.49,4.24-21.5,8.86-35.32,11.71  c-6.53,1.33-13.36,2.33-20.51,3c-3.11,0.29-6.49,0.52-10.16,0.71c-0.43,0-1.4,0.01-2.89,0.04c-1.49,0.02-2.7,0.08-3.64,0.18  c-0.93,0.1-1.83,0.26-2.7,0.5c-0.12,0-0.19,0.04-0.19,0.11c0,0.07,0.05,0.15,0.14,0.25c0.09,0.1,0.19,0.18,0.28,0.25  c0.09,0.07,0.22,0.15,0.37,0.25c0.16,0.1,0.28,0.17,0.37,0.21c0.09,0.05,0.17,0.09,0.23,0.14c1.43,0.76,2.67,1.24,3.73,1.43  c5.16,0.86,11.9,1.02,20.23,0.5c6.03-0.43,12.15-1.19,18.36-2.28c11.88-2.09,23.29-5.35,34.31-9.78c5.59-2.28,10.94-4.81,16.03-7.57  c2.55-1.38,4.32-2.36,5.31-2.93c0.99-0.57,2.42-1.47,4.29-2.71c1.86-1.24,3.39-2.4,4.57-3.5c2.3-2.19,2.86-4.18,1.68-5.96  c-1.18-1.78-4.04-3.46-8.58-5.03c-2.86-1.05-5.75-1.52-8.67-1.43c-0.31,0.05-0.65,0.07-1.03,0.07c-0.37,0-0.7,0.01-0.98,0.04  c-0.28,0.02-0.61,0.04-0.98,0.04c-0.37,0-0.72,0-1.03,0c0.12-0.43,0.36-0.89,0.7-1.39c0.34-0.5,0.79-1.05,1.35-1.64  c0.56-0.59,1.01-1.04,1.35-1.32c0.34-0.29,0.99-0.81,1.96-1.57c0.96-0.76,1.48-1.19,1.54-1.28c2.55-2,4.91-3.69,7.09-5.07  c0.87-0.57,2.52-1.52,4.94-2.86c-0.06,0.24-0.23,0.76-0.51,1.57c-0.28,0.81-0.48,1.43-0.61,1.86c-0.44,1.43-0.72,3.31-0.84,5.64  C107.41,38.43,108.12,38.94,109.61,39.58L109.61,39.58z M180.93,11.07c0.56,0.1,0.9,0.14,1.03,0.14L180,10.92  c-1.06-0.19-1.9-0.33-2.52-0.43c-0.31,0-1.17-0.1-2.56-0.29c-1.4-0.19-2.47-0.31-3.22-0.36c-2.98-0.29-6.25-0.5-9.79-0.64  c-6.09-0.29-12.99-0.24-20.7,0.14c-0.06,0-0.5,0.02-1.31,0.07c0.43-1.38,0.87-2.78,1.31-4.21c0.06-0.24-0.26-0.55-0.98-0.93  c-0.71-0.38-1.48-0.69-2.28-0.93c-0.81-0.24-1.24-0.29-1.31-0.14c-1.31,2.14-2.58,4.38-3.82,6.71c-3.92,0.33-7.77,0.74-11.56,1.21  c-4.04,0.57-7.24,1.1-9.6,1.57c-2.24,0.43-3.82,0.79-4.75,1.07c-1.06,0.29-1.68,0.48-1.86,0.57c-0.25,0.14-0.43,0.35-0.56,0.61  c-0.12,0.26-0.25,0.44-0.37,0.54c-0.12,0.14,0.09,0.36,0.65,0.64c0.56,0.29,1.18,0.55,1.86,0.78c0.68,0.24,1.12,0.36,1.31,0.36  c0.31,0,0.75,0.02,1.31,0.07c0.56,0.05,0.98,0.08,1.26,0.11c0.28,0.02,0.7,0.04,1.26,0.04c0.44-0.05,1.4-0.17,2.89-0.36  c0.62-0.05,1.46-0.15,2.52-0.32c1.06-0.17,1.77-0.27,2.14-0.32c0.56-0.05,2-0.23,4.33-0.54c2.33-0.31,4.12-0.56,5.36-0.75  c0.12,0,0.33-0.01,0.61-0.04c0.28-0.02,0.45-0.04,0.51-0.04c-2.24,4.52-4.57,9.76-6.99,15.7c-4.54,11.18-8.08,20.7-10.63,28.55  c-0.99,3.14-1.83,5.92-2.52,8.35c-0.19,0.86-0.5,2.24-0.93,4.14c-0.31,1.14-0.45,1.86-0.42,2.14c0.03,0.29,0.14,0.69,0.33,1.21  c0.19,0.52,0.31,0.9,0.37,1.14c0.06,0.24,0.67,0.61,1.82,1.11c1.15,0.5,1.82,0.65,2,0.46c0.19-0.14,0.48-0.33,0.89-0.57  c0.4-0.24,0.68-0.44,0.84-0.61c0.15-0.17,0.42-0.7,0.79-1.61c0.87-2.05,1.37-3.24,1.49-3.57c0.81-2.05,1.68-4.4,2.61-7.07  c0.43-1.14,1.23-3.34,2.38-6.6c1.15-3.26,2.03-5.77,2.66-7.53c2.92-8.18,6.49-17.75,10.72-28.69c0.93-2.33,1.83-4.81,2.7-7.42  c3.42-0.29,6.81-0.52,10.16-0.71c5.65-0.29,12.15-0.38,19.48-0.29c0.99,0,3.64,0.07,7.92,0.21c4.29,0.14,7.61,0.19,9.98,0.14  c0.31,0,0.23-0.17-0.23-0.5c-0.47-0.33-0.82-0.57-1.07-0.71C183.17,11.71,181.99,11.26,180.93,11.07L180.93,11.07L180.93,11.07z"></path>
<path class="st1" d="M31.13,29.53c-1.12,3.28-2.14,6.64-3.08,10.06c-0.99,3.62-1.71,6.97-2.14,10.06c-0.12,0.9-0.31,2.59-0.56,5.07  c-0.19,2.57,0.06,4.45,0.75,5.64c0.13,0.24,0.5,0.55,1.12,0.93c0.62,0.38,1.31,0.69,2.05,0.93c0.75,0.24,1.24,0.29,1.49,0.14  c0.37-0.19,0.67-0.4,0.89-0.64c0.22-0.24,0.4-0.54,0.56-0.89c0.15-0.36,0.28-0.63,0.37-0.82c0.09-0.19,0.19-0.52,0.28-1  c0.09-0.48,0.17-0.76,0.23-0.86c0.12-0.48,0.36-1.27,0.7-2.39c0.34-1.12,0.57-1.99,0.7-2.6c0.87-3.24,1.77-6.5,2.7-9.78  c0.87-3.14,1.86-6.33,2.98-9.56c0.19-0.48,0.56-1.5,1.12-3.07c0.56-1.57,1.01-2.88,1.35-3.93c0.34-1.05,0.64-2.09,0.89-3.14  c0.06-0.43-0.56-1-1.86-1.71c-1.31-0.71-2.67-1.28-4.1-1.71c-1.43-0.43-2.21-0.52-2.33-0.29C33.99,21.91,32.63,25.1,31.13,29.53  L31.13,29.53L31.13,29.53z"></path>
<path class="st1" d="M64.68,42.55c1.74-2.09,4.38-5.09,7.92-8.99c-0.87,2.67-2.18,6.76-3.92,12.28c-1.18,3.85-2.42,8.21-3.73,13.06  c-0.13,0.29-0.39,1.15-0.79,2.61c-0.4,1.45-0.67,2.44-0.79,2.96c-0.13,0.52-0.28,1.34-0.47,2.46c-0.19,1.12-0.26,2.12-0.23,3  c0.03,0.88,0.14,1.77,0.33,2.68c0.06,0.14,0.34,0.38,0.84,0.71c0.5,0.33,1.07,0.63,1.72,0.89c0.65,0.26,1.26,0.48,1.82,0.64  c0.56,0.17,0.93,0.18,1.12,0.04c0.25-0.24,0.48-0.49,0.7-0.75c0.22-0.26,0.4-0.49,0.56-0.68c0.15-0.19,0.31-0.44,0.47-0.75  c0.15-0.31,0.28-0.55,0.37-0.71c0.09-0.17,0.2-0.44,0.33-0.82c0.12-0.38,0.22-0.62,0.28-0.71c0.06-0.1,0.17-0.38,0.33-0.86  c0.15-0.48,0.23-0.74,0.23-0.78c0.19-0.52,0.81-2.64,1.86-6.35c0.31-0.9,0.92-2.89,1.82-5.96c0.9-3.07,1.6-5.44,2.1-7.1  c0.25-1,0.56-2.08,0.93-3.25c0.37-1.17,0.7-2.21,0.98-3.14c0.28-0.93,0.61-2.01,0.98-3.25c0.37-1.24,0.68-2.28,0.93-3.14  c0.25-0.81,0.84-2.97,1.77-6.5c0-0.09,0.09-0.48,0.28-1.14c0.19-0.67,0.29-1.11,0.33-1.32c0.03-0.21,0.11-0.61,0.23-1.18  c0.12-0.57,0.17-1.02,0.14-1.36c-0.03-0.33-0.08-0.71-0.14-1.14c-0.06-0.43-0.22-0.78-0.47-1.07c-0.19-0.43-1.03-0.93-2.52-1.5  c-0.81-0.29-1.4-0.43-1.77-0.43c-0.19,0.05-0.37,0.11-0.56,0.18c-0.19,0.07-0.34,0.17-0.47,0.29c-0.13,0.12-0.23,0.21-0.33,0.29  c-0.09,0.07-0.2,0.19-0.33,0.36c-0.13,0.17-0.2,0.29-0.23,0.36c-0.03,0.07-0.11,0.23-0.23,0.46c-0.13,0.24-0.19,0.38-0.19,0.43  c-0.25,0.33-0.47,0.69-0.65,1.07c-0.87,0.81-1.55,1.45-2.05,1.93c-1.74,1.52-3.39,3.09-4.94,4.71c-2.61,2.67-5.47,5.9-8.58,9.71  c-0.25,0.38-0.56,0.78-0.93,1.21c1.12-3.14,1.93-5.42,2.42-6.85c0.5-1.43,1.07-3.44,1.72-6.03c0.65-2.59,1.1-4.91,1.35-6.96  c0-0.14-0.05-0.27-0.14-0.39c-0.09-0.12-0.22-0.25-0.37-0.39c-0.16-0.14-0.33-0.26-0.51-0.36c-0.19-0.1-0.4-0.2-0.65-0.32  c-0.25-0.12-0.45-0.23-0.61-0.32c-0.16-0.1-0.36-0.19-0.61-0.29c-0.25-0.1-0.4-0.14-0.47-0.14c-0.37-0.19-1.17-0.46-2.38-0.82  c-1.21-0.36-1.82-0.44-1.82-0.25c-0.13,0.29-0.31,0.64-0.56,1.07c-0.06,0.05-0.17,0.11-0.33,0.18c-0.16,0.07-0.28,0.14-0.37,0.21  c-0.09,0.07-0.22,0.15-0.37,0.25c-0.16,0.1-0.3,0.17-0.42,0.21c-1.06,0.67-2.02,1.38-2.89,2.14c-0.93,0.76-1.71,1.5-2.33,2.21  c-0.25,0.24-0.47,0.51-0.65,0.82c-0.19,0.31-0.39,0.67-0.61,1.07c-0.22,0.4-0.39,0.7-0.51,0.89c0,0.05,0.08,0.13,0.23,0.25  c0.15,0.12,0.34,0.23,0.56,0.32c0.22,0.1,0.43,0.18,0.65,0.25c0.22,0.07,0.36,0.08,0.42,0.04c0.37-0.29,0.93-0.65,1.68-1.11  c0.75-0.45,1.24-0.75,1.49-0.89c0.25-0.14,0.47-0.29,0.65-0.43c0,0.05-0.28,0.88-0.84,2.5c-0.37,0.9-0.99,2.53-1.86,4.89  c-0.87,2.36-1.52,4.18-1.96,5.46c-1.18,3.33-2.39,6.69-3.64,10.06c-0.62,1.57-1.21,3.33-1.77,5.28c-0.75,2.52-0.84,4.43-0.28,5.71  c0.25,0.57,1.27,1.21,3.08,1.93c0.19,0.19,0.5,0.37,0.93,0.54c0.43,0.17,0.68,0.2,0.75,0.11c0.06,0,0.09-0.02,0.09-0.07  c0.56,0.1,0.96,0.1,1.21,0c0.19-0.09,0.39-0.2,0.61-0.32c0.22-0.12,0.4-0.26,0.56-0.43c0.15-0.17,0.29-0.31,0.42-0.43  c0.12-0.12,0.28-0.3,0.47-0.54c0.19-0.24,0.31-0.4,0.37-0.5c0.06-0.09,0.17-0.29,0.33-0.57c0.15-0.29,0.25-0.46,0.28-0.54  c0.03-0.07,0.2-0.44,0.51-1.11c0.56-1.24,1.09-2.47,1.58-3.71C59.46,49.04,62.63,45.02,64.68,42.55L64.68,42.55L64.68,42.55z"></path>
<path class="st0" d="M200.87,41.88c1.74-2.09,4.38-5.09,7.92-8.99c-0.87,2.67-2.18,6.76-3.92,12.28c-1.18,3.85-2.42,8.21-3.73,13.06  c-0.13,0.29-0.39,1.15-0.79,2.61c-0.4,1.45-0.67,2.44-0.79,2.96c-0.13,0.52-0.28,1.34-0.47,2.46c-0.19,1.12-0.27,2.12-0.23,3  c0.03,0.88,0.14,1.77,0.33,2.68c0.06,0.14,0.34,0.38,0.84,0.71c0.5,0.33,1.07,0.63,1.72,0.89c0.65,0.26,1.26,0.48,1.82,0.64  c0.56,0.17,0.93,0.18,1.12,0.04c0.25-0.24,0.48-0.49,0.7-0.75c0.22-0.26,0.4-0.49,0.56-0.68c0.15-0.19,0.31-0.44,0.47-0.75  c0.15-0.31,0.28-0.55,0.37-0.71c0.09-0.17,0.2-0.44,0.33-0.82c0.12-0.38,0.22-0.62,0.28-0.71c0.06-0.1,0.17-0.38,0.33-0.86  c0.15-0.48,0.23-0.74,0.23-0.78c0.19-0.52,0.81-2.64,1.86-6.35c0.31-0.9,0.92-2.89,1.82-5.96c0.9-3.07,1.6-5.44,2.1-7.1  c0.25-1,0.56-2.08,0.93-3.25c0.37-1.17,0.7-2.21,0.98-3.14c0.28-0.93,0.61-2.01,0.98-3.25c0.37-1.24,0.68-2.28,0.93-3.14  c0.25-0.81,0.84-2.97,1.77-6.5c0-0.09,0.09-0.48,0.28-1.14c0.19-0.67,0.29-1.11,0.33-1.32c0.03-0.21,0.11-0.61,0.23-1.18  c0.12-0.57,0.17-1.02,0.14-1.36c-0.03-0.33-0.08-0.71-0.14-1.14c-0.06-0.43-0.22-0.78-0.47-1.07c-0.19-0.43-1.03-0.93-2.52-1.5  c-0.81-0.29-1.4-0.43-1.77-0.43c-0.19,0.05-0.37,0.11-0.56,0.18c-0.19,0.07-0.34,0.17-0.47,0.29c-0.13,0.12-0.23,0.21-0.33,0.29  c-0.09,0.07-0.2,0.19-0.33,0.36c-0.13,0.17-0.2,0.29-0.23,0.36c-0.03,0.07-0.11,0.23-0.23,0.46c-0.13,0.24-0.19,0.38-0.19,0.43  c-0.25,0.33-0.47,0.69-0.65,1.07c-0.87,0.81-1.55,1.45-2.05,1.93c-1.74,1.52-3.39,3.09-4.94,4.71c-2.61,2.67-5.47,5.9-8.58,9.71  c-0.25,0.38-0.56,0.79-0.93,1.21c1.12-3.14,1.93-5.42,2.42-6.85c0.5-1.43,1.07-3.44,1.72-6.03c0.65-2.59,1.1-4.91,1.35-6.96  c0-0.14-0.05-0.27-0.14-0.39c-0.09-0.12-0.22-0.25-0.37-0.39c-0.16-0.14-0.33-0.26-0.51-0.36c-0.19-0.09-0.4-0.2-0.65-0.32  c-0.25-0.12-0.45-0.23-0.61-0.32c-0.16-0.1-0.36-0.19-0.61-0.29c-0.25-0.1-0.4-0.14-0.47-0.14c-0.37-0.19-1.17-0.46-2.38-0.82  c-1.21-0.36-1.82-0.44-1.82-0.25c-0.13,0.29-0.31,0.64-0.56,1.07c-0.06,0.05-0.17,0.11-0.33,0.18c-0.16,0.07-0.28,0.14-0.37,0.21  c-0.09,0.07-0.22,0.15-0.37,0.25c-0.16,0.1-0.3,0.17-0.42,0.21c-1.06,0.67-2.02,1.38-2.89,2.14c-0.93,0.76-1.71,1.5-2.33,2.21  c-0.25,0.24-0.47,0.51-0.65,0.82c-0.19,0.31-0.39,0.67-0.61,1.07c-0.22,0.4-0.39,0.7-0.51,0.89c0,0.05,0.08,0.13,0.23,0.25  c0.15,0.12,0.34,0.23,0.56,0.32c0.22,0.1,0.43,0.18,0.65,0.25c0.22,0.07,0.36,0.08,0.42,0.04c0.37-0.29,0.93-0.65,1.68-1.11  c0.75-0.45,1.24-0.75,1.49-0.89c0.25-0.14,0.47-0.29,0.65-0.43c0,0.05-0.28,0.88-0.84,2.5c-0.37,0.9-0.99,2.53-1.86,4.89  c-0.87,2.36-1.52,4.18-1.96,5.46c-1.18,3.33-2.39,6.69-3.64,10.06c-0.62,1.57-1.21,3.33-1.77,5.28c-0.75,2.52-0.84,4.43-0.28,5.71  c0.25,0.57,1.27,1.21,3.08,1.93c0.19,0.19,0.5,0.37,0.93,0.53c0.43,0.17,0.68,0.2,0.75,0.11c0.06,0,0.09-0.02,0.09-0.07  c0.56,0.1,0.96,0.1,1.21,0c0.19-0.09,0.39-0.2,0.61-0.32c0.22-0.12,0.4-0.26,0.56-0.43c0.15-0.17,0.29-0.31,0.42-0.43  c0.12-0.12,0.28-0.3,0.47-0.54c0.19-0.24,0.31-0.4,0.37-0.5c0.06-0.09,0.17-0.29,0.33-0.57c0.15-0.29,0.25-0.46,0.28-0.54  c0.03-0.07,0.2-0.44,0.51-1.11c0.56-1.24,1.09-2.47,1.58-3.71C195.65,48.38,198.82,44.36,200.87,41.88L200.87,41.88L200.87,41.88z"></path>
<path class="st0" d="M148.02,43.24c-2.05,2.57-3.95,5.02-5.69,7.35c-6.9,2.19-12.58,4.16-17.06,5.92c0.93,0.62,1.71,1.07,2.33,1.36  c0.62,0.29,1.06,0.4,1.31,0.36c2.98-0.67,6.21-1.45,9.69-2.36c-3.92,5.71-6.96,11.16-9.14,16.35c-0.06,0.19,0.36,0.49,1.26,0.89  c0.9,0.4,1.41,0.51,1.54,0.32c1.49-1.48,3.09-3.2,4.8-5.18c1.71-1.97,3-3.5,3.87-4.57c0.87-1.07,2.39-3.01,4.57-5.82  c2.17-2.81,3.45-4.45,3.82-4.93c1.24-0.38,2.42-0.71,3.54-1c2.8-0.81,6.56-1.93,11.28-3.35c0.19-0.05,0.47-0.13,0.84-0.25  c0.37-0.12,0.59-0.18,0.65-0.18c-0.5,1.19-1.06,2.43-1.68,3.71c-0.19,0.33-0.56,1.07-1.12,2.21c-0.56,1.14-0.93,1.95-1.12,2.43  c-0.19,0.48-0.47,1.18-0.84,2.11c-0.37,0.93-0.64,1.77-0.79,2.53c-0.16,0.76-0.23,1.52-0.23,2.28c0,0.24,0.45,0.56,1.35,0.96  c0.9,0.4,1.48,0.54,1.72,0.39c0.93-0.57,1.8-1.24,2.61-2c0.81-0.76,1.54-1.62,2.19-2.57c0.65-0.95,1.18-1.78,1.58-2.5  c0.4-0.71,0.92-1.64,1.54-2.78c1.62-3.14,3.17-6.73,4.66-10.78c2.61-7.04,4.5-14.56,5.69-22.56c0.06-0.52-0.98-1.26-3.12-2.21  c-2.14-0.95-3.46-1.24-3.96-0.86C164.86,25.02,156.16,33.25,148.02,43.24L148.02,43.24L148.02,43.24z M160.14,45.07  c-1.37,0.4-2.24,0.68-2.61,0.82c-0.25,0.05-1.34,0.38-3.26,1c0-0.05,0.06-0.14,0.19-0.29c0.12-0.14,0.22-0.26,0.28-0.36  c5.72-6.71,11.59-12.61,17.62-17.7c-0.99,4.19-2.27,8.38-3.82,12.56c-0.19,0.57-0.4,1.19-0.65,1.86c-0.87,0.14-2.39,0.52-4.57,1.14  C162.56,44.34,161.51,44.66,160.14,45.07L160.14,45.07z"></path>
</svg>
